<svg xmlns="http://www.w3.org/2000/svg" viewBox="0 0 1395.52 1034.37"><defs><style>.cls-1{fill:none;stroke:#000;stroke-miterlimit:10;}</style></defs><title>bgofGraphic</title><g id="front"><path class="cls-1" d="M1394.21,531.84l-96.53-84.59-20.27-52.87-25,13.2-76.71-67.22-166.06,89.15L968.33,407.1,845.18,303,708.52,394.38h0l-10.74-12.75L682.3,326.05,634.85,306.9l-28-33.29-33.93,8.29-67.77-27.35h0l-130.3-131.1L310,115.34l-8.23-30L228.22,5.46,173.86,98.33l-53.3-6.66-108,248.69L-.21,562l65.68,55.49,9.81,128.84,88-46.21,31.19,26.35h190.6L487.64,794l109.27-18.79,8.32,2.89L672,873.49l235.18,24.63,53.25-13.45,148.57,5.5L1235.3,1038l29.4-105.68-4.36-48.74Z" transform="translate(0.72 -4.62)"/><path d="M228.31,6.29l73,79.27,8.2,29.91.09.32.33,0,64.69,8.08,130.18,131,.08.07.09,0,67.78,27.35.14.06.16,0,33.63-8.21,27.83,33.06.08.09.12.05,47.22,19.06,15.41,55.34,0,.1.07.09,10.74,12.75.29.34.37-.25,136.35-91.16L968,407.48l0,0,.05,0L1009.42,430l.23.13.24-.13,165.75-89,76.45,67,.26.23.31-.16,24.48-12.94,20.07,52.34,0,.11.09.08L1393.61,532,1259.87,883.36l0,.11v.12l4.35,48.65-29.12,104.68L1109.35,889.85l-.15-.17H1109l-148.57-5.5h-.08l-.06,0-53.16,13.42L672.25,873l-66.61-95.16-.09-.13-.15-.06-8.32-2.89-.12,0-.13,0L487.75,793.51,385.33,726.08l-.12-.08H194.64l-31-26.23-.26-.22-.3.16L75.72,745.57,66,617.48l0-.2-.16-.14L.31,561.81,13,340.47,120.87,92.21l52.93,6.61.33,0,.16-.28,54-92.29m-.09-.83L173.86,98.33l-53.3-6.66-108,248.69L-.21,562l65.68,55.49,9.81,128.84,88-46.21,31.19,26.35h190.6L487.64,794l109.27-18.79,8.32,2.89L672,873.49l235.18,24.63,53.25-13.45,148.57,5.5L1235.3,1038l29.4-105.68-4.36-48.74,133.87-351.7-96.53-84.59-20.27-52.87-25,13.2-76.71-67.22-166.06,89.15L968.33,407.1,845.18,303,708.52,394.38l-10.74-12.75L682.3,326.05,634.85,306.9l-28-33.29-33.93,8.29-67.77-27.35-130.3-131.1L310,115.34l-8.23-30L228.22,5.46Z" transform="translate(0.72 -4.62)"/></g></svg>