<svg xmlns="http://www.w3.org/2000/svg" xmlns:xlink="http://www.w3.org/1999/xlink" viewBox="100 -100 1091.64 824.65"><defs><style>.cls-1,.cls-3,.cls-5{fill:none;}.cls-2{clip-path:url(#clip-path);}.cls-3{stroke:#707070;}.cls-3,.cls-5{stroke-miterlimit:10;}.cls-4{fill:#707070;}.cls-5{stroke:#b7b7b7;stroke-width:0.5px;}.cls-6{fill:#b7b7b7;}</style><clipPath id="clip-path" transform="translate(165.88 -231.87)"><rect class="cls-1" x="0.46" y="-0.08" width="884" height="663"/></clipPath></defs><title>main-geo-lines</title><g id="Layer_7" data-name="Layer 7"><g class="cls-2"><line class="cls-3" x1="236.74" y1="138.75" x2="149.11" y2="24.16"/><polygon class="cls-3" points="465.02 119.31 236.74 138.75 370.88 196.56 465.02 119.31"/><polygon class="cls-3" points="541.76 245.77 370.88 196.56 465.02 119.31 541.76 245.77"/><polygon class="cls-3" points="681.45 180.88 541.76 245.77 611.28 360.56 681.45 180.88"/><polygon class="cls-3" points="717.2 343.15 681.45 180.88 611.28 360.56 717.2 343.15"/><polygon class="cls-3" points="780.45 294.99 681.45 180.88 717.2 343.15 780.45 294.99"/><polygon class="cls-3" points="899.64 385.87 780.45 294.99 717.2 343.15 899.64 385.87"/><polygon class="cls-3" points="1068.41 327.77 899.64 385.87 1090.68 431.44 1068.41 327.77"/><polygon class="cls-3" points="1047.36 477.43 1090.68 431.44 899.64 385.87 1047.36 477.43"/><polygon class="cls-3" points="869.36 449.71 1047.36 477.43 899.64 385.87 869.36 449.71"/><polygon class="cls-3" points="957.35 586.21 869.36 449.71 1047.36 477.43 957.35 586.21"/><polygon class="cls-3" points="1055.17 601.45 957.35 586.21 1047.36 477.43 1055.17 601.45"/><polygon class="cls-3" points="985.09 732.17 1055.17 601.45 957.35 586.21 985.09 732.17"/><polygon class="cls-3" points="848.86 581.38 985.09 732.17 957.35 586.21 848.86 581.38"/><polygon class="cls-3" points="841 762.47 848.86 581.38 985.09 732.17 841 762.47"/><polygon class="cls-3" points="1041.64 687.97 841 762.47 979.1 823.9 1041.64 687.97"/><polygon class="cls-3" points="985.09 732.17 979.1 823.9 841 762.47 985.09 732.17"/><polygon class="cls-3" points="683.04 731.84 841 762.47 728.41 590.49 683.04 731.84"/><polygon class="cls-3" points="848.86 581.38 728.41 590.49 841 762.47 848.86 581.38"/><polygon class="cls-3" points="572.38 465.25 728.41 590.49 848.86 581.38 572.38 465.25"/><polygon class="cls-3" points="611.28 360.56 572.38 465.25 717.55 432.86 611.28 360.56"/><polygon class="cls-3" points="848.86 581.38 717.55 432.86 572.38 465.25 848.86 581.38"/><polygon class="cls-3" points="433.87 319.37 572.38 465.25 611.28 360.56 433.87 319.37"/><polygon class="cls-3" points="370.88 196.56 433.87 319.37 290.23 254.82 370.88 196.56"/><polygon class="cls-3" points="370.88 196.56 611.28 360.56 433.87 319.37 370.88 196.56"/><polygon class="cls-3" points="290.57 378.42 433.87 319.37 290.23 254.82 290.57 378.42"/><polygon class="cls-3" points="97.18 227.02 290.23 254.82 236.74 138.75 97.18 227.02"/><polygon class="cls-3" points="20.32 113.47 149.11 24.16 97.18 227.02 20.32 113.47"/><polygon class="cls-3" points="1.92 292.04 97.18 227.02 94.17 415.64 1.92 292.04"/><polygon class="cls-3" points="290.57 378.42 97.18 227.02 94.17 415.64 290.57 378.42"/><polygon class="cls-3" points="241.67 474.77 94.17 415.64 290.57 378.42 241.67 474.77"/><polygon class="cls-3" points="440.6 479.38 290.57 378.42 241.67 474.77 440.6 479.38"/><polygon class="cls-3" points="572.38 465.25 433.87 319.37 440.6 479.38 572.38 465.25"/><polygon class="cls-3" points="424.67 581.62 440.6 479.38 601.94 609.22 424.67 581.62"/><polygon class="cls-3" points="572.38 465.25 601.94 609.22 440.6 479.38 572.38 465.25"/><polygon class="cls-3" points="728.41 590.49 601.94 609.22 572.38 465.25 728.41 590.49"/><polygon class="cls-3" points="683.04 731.84 601.94 609.22 728.41 590.49 683.04 731.84"/><polygon class="cls-3" points="534.47 708.71 601.94 609.22 424.67 581.62 534.47 708.71"/><polygon class="cls-3" points="241.67 474.77 424.67 581.62 440.6 479.38 241.67 474.77"/><polygon class="cls-3" points="279.67 583.9 424.67 581.62 241.67 474.77 279.67 583.9"/><polygon class="cls-3" points="94.17 415.64 279.67 583.9 241.67 474.77 94.17 415.64"/><polyline class="cls-3" points="94.17 415.64 1.92 292.04 20.57 113.87"/><polygon class="cls-3" points="717.55 432.86 717.2 343.15 611.28 360.56 717.55 432.86"/><polygon class="cls-3" points="869.36 449.71 717.2 343.15 717.55 432.86 869.36 449.71"/><polygon class="cls-3" points="848.86 581.38 869.36 449.71 957.35 586.21 848.86 581.38"/><circle class="cls-4" cx="440.91" cy="479.81" r="5.96"/><circle class="cls-4" cx="572.69" cy="465.67" r="8.93"/><circle class="cls-4" cx="434.18" cy="319.8" r="6.7"/><circle class="cls-4" cx="290.88" cy="378.85" r="5.21"/><circle class="cls-4" cx="241.98" cy="475.2" r="4.47"/><circle class="cls-4" cx="96.75" cy="227.33" r="2.98"/><circle class="cls-4" cx="236.31" cy="139.07" r="4.47"/><circle class="cls-4" cx="289.81" cy="255.13" r="2.23"/><circle class="cls-4" cx="370.45" cy="196.87" r="5.96"/><circle class="cls-4" cx="464.6" cy="119.62" r="4.47"/><circle class="cls-4" cx="148.68" cy="24.47" r="4.47"/><circle class="cls-4" cx="21.02" cy="114.06" r="3.72"/><circle class="cls-4" cx="2.23" cy="292.47" r="2.23"/><circle class="cls-4" cx="94.49" cy="416.07" r="3.72"/><circle class="cls-4" cx="279.98" cy="584.33" r="2.23"/><circle class="cls-4" cx="424.98" cy="582.05" r="5.96"/><circle class="cls-4" cx="601.51" cy="609.53" r="5.96"/><circle class="cls-4" cx="534.15" cy="708.28" r="2.98"/><circle class="cls-4" cx="682.73" cy="731.42" r="2.98"/><circle class="cls-4" cx="728.83" cy="590.18" r="2.98"/><circle class="cls-4" cx="840.69" cy="762.04" r="5.21"/><circle class="cls-4" cx="849.29" cy="581.07" r="3.72"/><circle class="cls-4" cx="957.77" cy="585.9" r="2.98"/><circle class="cls-4" cx="869.79" cy="449.4" r="3.72"/><circle class="cls-4" cx="900.07" cy="385.56" r="2.98"/><circle class="cls-4" cx="717.24" cy="432.43" r="5.21"/><circle class="cls-4" cx="717.51" cy="343.57" r="8.19"/><circle class="cls-4" cx="611.59" cy="360.98" r="5.96"/><circle class="cls-4" cx="542.07" cy="246.19" r="5.21"/><circle class="cls-4" cx="681.76" cy="181.31" r="7.44"/><circle class="cls-4" cx="780.76" cy="295.41" r="5.21"/><polygon class="cls-5" points="519.86 202.99 535.1 296.85 376.51 242.29 519.86 202.99"/><polygon class="cls-5" points="674.92 255.72 535.1 296.85 744.08 333.83 674.92 255.72"/><polygon class="cls-5" points="905.4 277 744.08 333.83 876.74 473.29 905.4 277"/><polygon class="cls-5" points="990.24 442.05 905.4 277 876.74 473.29 990.24 442.05"/><polygon class="cls-5" points="752.71 466.05 876.74 473.29 744.08 333.83 752.71 466.05"/><polygon class="cls-5" points="527.55 430.99 752.71 466.05 744.08 333.83 535.1 296.85 527.55 430.99"/><polygon class="cls-5" points="376.45 381.41 527.55 430.99 535.1 296.85 376.45 381.41"/><polygon class="cls-5" points="376.51 242.29 376.45 381.41 535.1 296.85 376.51 242.29"/><polygon class="cls-5" points="394.96 123.82 376.51 242.29 519.86 202.99 394.96 123.82"/><polygon class="cls-5" points="246.66 231.6 376.51 242.29 394.96 123.82 246.66 231.6"/><polygon class="cls-5" points="306.54 10.31 394.96 123.82 246.66 231.6 306.54 10.31"/><line class="cls-5" x1="169.64" y1="73.49" x2="306.54" y2="10.31"/><polygon class="cls-5" points="108.47 221.52 169.64 73.49 42.5 122.94 108.47 221.52"/><polygon class="cls-5" points="246.66 231.6 169.64 73.49 108.47 221.52 246.66 231.6"/><polygon class="cls-5" points="183.3 377.39 246.66 231.6 108.47 221.52 183.3 377.39"/><polygon class="cls-5" points="93.47 460.6 183.3 377.39 30.72 325.04 93.47 460.6"/><polygon class="cls-5" points="108.47 221.52 30.72 325.04 183.3 377.39 108.47 221.52"/><polygon class="cls-5" points="299.79 490.19 183.3 377.39 93.47 460.6 299.79 490.19"/><polygon class="cls-5" points="376.45 381.41 299.79 490.19 183.3 377.39 376.45 381.41"/><polygon class="cls-5" points="411.5 552.05 299.79 490.19 376.45 381.41 411.5 552.05"/><polygon class="cls-5" points="499.55 504.77 376.45 381.41 411.5 552.05 499.55 504.77"/><polygon class="cls-5" points="529.82 575.56 411.5 552.05 499.55 504.77 529.82 575.56"/><polygon class="cls-5" points="527.55 430.99 376.45 381.41 499.55 504.77 527.55 430.99"/><polygon class="cls-5" points="650.14 573.97 527.55 430.99 499.55 504.77 650.14 573.97"/><polygon class="cls-5" points="752.71 466.05 527.55 430.99 650.14 573.97 752.71 466.05"/><polygon class="cls-5" points="535.1 296.85 752.71 466.05 527.55 430.99 535.1 296.85"/><polygon class="cls-5" points="650.14 573.97 529.82 575.56 499.55 504.77 650.14 573.97"/><polygon class="cls-5" points="849.04 585.88 650.14 573.97 752.71 466.05 849.04 585.88"/><polygon class="cls-5" points="876.74 473.29 752.71 466.05 849.04 585.88 876.74 473.29"/><polygon class="cls-5" points="1008.53 491.91 876.74 473.29 849.04 585.88 1008.53 491.91"/><polygon class="cls-5" points="990.24 442.05 1008.53 491.91 876.74 473.29 990.24 442.05"/><path class="cls-5" d="M586.9,897.42c1.86.29,96.27-79.67,96.27-79.67L615.67,982Z" transform="translate(165.88 -231.87)"/><polygon class="cls-5" points="650.14 573.97 752.58 666.79 629.38 678.73 650.14 573.97"/><polygon class="cls-5" points="529.82 575.56 629.38 678.73 650.14 573.97 529.82 575.56"/><polygon class="cls-5" points="447.01 630.01 629.38 678.73 529.82 575.56 447.01 630.01"/><polygon class="cls-5" points="411.5 552.05 447.01 630.01 529.82 575.56 411.5 552.05"/><circle class="cls-6" cx="529.82" cy="575.56" r="7.53"/><circle class="cls-6" cx="650.4" cy="574.32" r="9.42"/><circle class="cls-6" cx="753.23" cy="664.67" r="7.53"/><circle class="cls-6" cx="849.31" cy="586.24" r="9.42"/><circle class="cls-6" cx="877" cy="473.65" r="7.53"/><circle class="cls-6" cx="752.97" cy="466.41" r="10.04"/><circle class="cls-6" cx="527.82" cy="431.35" r="8.79"/><circle class="cls-6" cx="376.71" cy="381.77" r="11.93"/><circle class="cls-6" cx="535.89" cy="297.92" r="8.79"/><circle class="cls-6" cx="744.34" cy="334.19" r="8.79"/><circle class="cls-6" cx="905.66" cy="277.36" r="5.65"/><circle class="cls-6" cx="675.18" cy="256.08" r="7.53"/><circle class="cls-6" cx="520.12" cy="203.35" r="8.16"/><circle class="cls-6" cx="376.15" cy="242.55" r="9.42"/><circle class="cls-6" cx="395.22" cy="124.18" r="8.79"/><circle class="cls-6" cx="246.93" cy="231.96" r="6.28"/><circle class="cls-6" cx="183.57" cy="377.74" r="10.04"/><circle class="cls-6" cx="94.03" cy="459.1" r="9.42"/><circle class="cls-6" cx="30.98" cy="325.4" r="8.79"/><circle class="cls-6" cx="108.11" cy="221.78" r="8.79"/><circle class="cls-6" cx="169.9" cy="73.84" r="10.67"/><circle class="cls-6" cx="306.89" cy="10.05" r="10.04"/><circle class="cls-6" cx="411.76" cy="552.41" r="9.42"/><circle class="cls-6" cx="300.05" cy="490.54" r="9.42"/><circle class="cls-6" cx="629.64" cy="679.09" r="8.79"/></g></g></svg>