<svg xmlns="http://www.w3.org/2000/svg" xmlns:xlink="http://www.w3.org/1999/xlink" viewBox="0 0 1394 859"><defs><style>.cls-1,.cls-3,.cls-5{fill:none;}.cls-2{clip-path:url(#clip-path);}.cls-3{stroke:#707070;}.cls-3,.cls-5{stroke-miterlimit:10;}.cls-4{fill:#707070;}.cls-5{stroke:#b7b7b7;stroke-width:0.5px;}.cls-6{fill:#b7b7b7;}</style><clipPath id="clip-path"><rect class="cls-1" x="-5.5" width="1398" height="859.5"/></clipPath></defs><title>main-geo-lines</title><g id="Layer_7" data-name="Layer 7"><g class="cls-2"><polygon class="cls-3" points="39.18 215.28 -3.86 -163.46 -100.42 32.72 39.18 215.28"/><polygon class="cls-3" points="402.84 184.3 39.18 215.28 252.86 307.36 402.84 184.3"/><polygon class="cls-3" points="525.09 385.75 252.86 307.36 402.84 184.3 525.09 385.75"/><polygon class="cls-3" points="747.6 282.38 525.09 385.75 635.83 568.61 747.6 282.38"/><polygon class="cls-3" points="804.56 540.88 747.6 282.38 635.83 568.61 804.56 540.88"/><polygon class="cls-3" points="905.32 464.16 747.6 282.38 804.56 540.88 905.32 464.16"/><polygon class="cls-3" points="1095.19 608.94 905.32 464.16 804.56 540.88 1095.19 608.94"/><polygon class="cls-3" points="1364.03 516.39 1095.19 608.94 1399.52 681.53 1364.03 516.39"/><polygon class="cls-3" points="1330.51 754.79 1399.52 681.53 1095.19 608.94 1330.51 754.79"/><polygon class="cls-3" points="1046.95 710.64 1330.51 754.79 1095.19 608.94 1046.95 710.64"/><polygon class="cls-3" points="1187.11 928.08 1046.95 710.64 1330.51 754.79 1187.11 928.08"/><polygon class="cls-3" points="1342.95 952.35 1187.11 928.08 1330.51 754.79 1342.95 952.35"/><polygon class="cls-3" points="573.85 735.38 822.41 934.9 1014.29 920.38 573.85 735.38"/><polygon class="cls-3" points="635.83 568.61 573.85 735.38 805.11 683.78 635.83 568.61"/><polygon class="cls-3" points="1014.29 920.38 805.11 683.78 573.85 735.38 1014.29 920.38"/><polygon class="cls-3" points="353.21 503 573.85 735.38 635.83 568.61 353.21 503"/><polygon class="cls-3" points="252.86 307.36 353.21 503 124.4 400.17 252.86 307.36"/><polygon class="cls-3" points="252.86 307.36 635.83 568.61 353.21 503 252.86 307.36"/><polygon class="cls-3" points="124.94 597.07 353.21 503 124.4 400.17 124.94 597.07"/><polygon class="cls-3" points="-183.14 355.88 124.4 400.17 39.18 215.28 -183.14 355.88"/><polygon class="cls-3" points="124.94 597.07 -183.14 355.88 -187.92 656.36 124.94 597.07"/><polygon class="cls-3" points="47.03 750.56 -187.92 656.36 124.94 597.07 47.03 750.56"/><polygon class="cls-3" points="363.93 757.9 124.94 597.07 47.03 750.56 363.93 757.9"/><polygon class="cls-3" points="573.85 735.38 353.21 503 363.93 757.9 573.85 735.38"/><polygon class="cls-3" points="338.56 920.76 363.93 757.9 620.95 964.74 338.56 920.76"/><polygon class="cls-3" points="573.85 735.38 620.95 964.74 363.93 757.9 573.85 735.38"/><polygon class="cls-3" points="822.41 934.9 620.95 964.74 573.85 735.38 822.41 934.9"/><polygon class="cls-3" points="47.03 750.56 338.56 920.76 363.93 757.9 47.03 750.56"/><polygon class="cls-3" points="107.57 924.4 338.56 920.76 47.03 750.56 107.57 924.4"/><polygon class="cls-3" points="-187.92 656.36 107.57 924.4 47.03 750.56 -187.92 656.36"/><polygon class="cls-3" points="805.11 683.78 804.56 540.88 635.83 568.61 805.11 683.78"/><polygon class="cls-3" points="1046.95 710.64 804.56 540.88 805.11 683.78 1046.95 710.64"/><polygon class="cls-3" points="1014.29 920.38 1046.95 710.64 1187.11 928.08 1014.29 920.38"/><circle class="cls-4" cx="364.42" cy="758.57" r="9.49"/><circle class="cls-4" cx="574.35" cy="736.06" r="14.23"/><circle class="cls-4" cx="353.71" cy="503.68" r="10.67"/><circle class="cls-4" cx="125.44" cy="597.75" r="8.3"/><circle class="cls-4" cx="47.53" cy="751.23" r="7.12"/><circle class="cls-4" cx="38.5" cy="215.77" r="7.12"/><circle class="cls-4" cx="123.72" cy="400.66" r="3.56"/><circle class="cls-4" cx="252.18" cy="307.85" r="9.49"/><circle class="cls-4" cx="402.16" cy="184.79" r="7.12"/><circle class="cls-4" cx="1047.63" cy="710.14" r="5.93"/><circle class="cls-4" cx="1095.87" cy="608.44" r="4.74"/><circle class="cls-4" cx="804.62" cy="683.1" r="8.3"/><circle class="cls-4" cx="805.05" cy="541.56" r="13.04"/><circle class="cls-4" cx="636.32" cy="569.29" r="9.49"/><circle class="cls-4" cx="525.58" cy="386.43" r="8.3"/><circle class="cls-4" cx="748.1" cy="283.06" r="11.86"/><circle class="cls-4" cx="905.81" cy="464.84" r="8.3"/><polygon class="cls-5" points="490.19 317.6 514.47 467.12 261.84 380.21 490.19 317.6"/><polygon class="cls-5" points="737.21 401.61 514.47 467.12 847.37 526.04 737.21 401.61"/><polygon class="cls-5" points="1104.36 435.5 847.37 526.04 1058.71 748.2 1104.36 435.5"/><polygon class="cls-5" points="1239.52 698.43 1104.36 435.5 1058.71 748.2 1239.52 698.43"/><polygon class="cls-5" points="861.13 736.66 1058.71 748.2 847.37 526.04 861.13 736.66"/><polygon class="cls-5" points="502.45 680.81 861.13 736.66 847.37 526.04 514.47 467.12 502.45 680.81"/><polygon class="cls-5" points="261.74 601.84 502.45 680.81 514.47 467.12 261.74 601.84"/><polygon class="cls-5" points="261.84 380.21 261.74 601.84 514.47 467.12 261.84 380.21"/><polygon class="cls-5" points="291.22 191.49 261.84 380.21 490.19 317.6 291.22 191.49"/><polygon class="cls-5" points="54.99 363.18 261.84 380.21 291.22 191.49 54.99 363.18"/><polygon class="cls-5" points="150.37 10.66 291.22 191.49 54.99 363.18 150.37 10.66"/><polygon class="cls-5" points="-67.71 111.3 150.37 10.66 -154.81 -70.26 -67.71 111.3"/><polygon class="cls-5" points="54.99 363.18 -67.71 111.3 -165.16 347.12 54.99 363.18"/><polygon class="cls-5" points="-45.94 595.42 54.99 363.18 -165.16 347.12 -45.94 595.42"/><polygon class="cls-5" points="139.62 775.11 -45.94 595.42 -189.04 727.98 139.62 775.11"/><polygon class="cls-5" points="261.74 601.84 139.62 775.11 -45.94 595.42 261.74 601.84"/><polygon class="cls-5" points="317.58 873.66 139.62 775.11 261.74 601.84 317.58 873.66"/><polygon class="cls-5" points="457.84 798.35 261.74 601.84 317.58 873.66 457.84 798.35"/><polygon class="cls-5" points="506.06 911.11 317.58 873.66 457.84 798.35 506.06 911.11"/><polygon class="cls-5" points="502.45 680.81 261.74 601.84 457.84 798.35 502.45 680.81"/><polygon class="cls-5" points="697.73 908.57 502.45 680.81 457.84 798.35 697.73 908.57"/><polygon class="cls-5" points="861.13 736.66 502.45 680.81 697.73 908.57 861.13 736.66"/><polygon class="cls-5" points="514.47 467.12 861.13 736.66 502.45 680.81 514.47 467.12"/><polygon class="cls-5" points="697.73 908.57 506.06 911.11 457.84 798.35 697.73 908.57"/><polygon class="cls-5" points="1014.59 927.55 697.73 908.57 861.13 736.66 1014.59 927.55"/><polygon class="cls-5" points="1058.71 748.2 861.13 736.66 1014.59 927.55 1058.71 748.2"/><polygon class="cls-5" points="1268.64 777.85 1058.71 748.2 1014.59 927.55 1268.64 777.85"/><polygon class="cls-5" points="1239.52 698.43 1268.64 777.85 1058.71 748.2 1239.52 698.43"/><circle class="cls-6" cx="1059.12" cy="748.77" r="12"/><circle class="cls-6" cx="861.55" cy="737.23" r="16"/><circle class="cls-6" cx="502.87" cy="681.38" r="14"/><circle class="cls-6" cx="262.15" cy="602.41" r="19"/><circle class="cls-6" cx="515.73" cy="468.83" r="14"/><circle class="cls-6" cx="847.79" cy="526.61" r="14"/><circle class="cls-6" cx="1104.78" cy="436.07" r="9"/><circle class="cls-6" cx="737.62" cy="402.18" r="12"/><circle class="cls-6" cx="490.61" cy="318.17" r="13"/><circle class="cls-6" cx="261.27" cy="380.63" r="15"/><circle class="cls-6" cx="291.64" cy="192.06" r="14"/><circle class="cls-6" cx="55.41" cy="363.75" r="10"/><circle class="cls-6" cx="150.94" cy="10.24" r="16"/><circle class="cls-6" cx="140.04" cy="775.68" r="15"/></g></g></svg>